PathFileType	4	(X/Y/Z)	C:/Users/opensim2020/Desktop/walking_exp_matlab/subject03_walking10_straight_01.trc	
DataRate	CameraRate	NumFrames	NumMarkers	Units	OrigDataRate	OrigDataStartFrame	OrigNumFrames	
100.00	100.00	7	45	mm	100.00	1016	477	
Frame#	Time	LFHD			RFHD			LBHD			RBHD			C7			T10			CLAV			STRN			RBAK			LSHO			LUPA			LELB			LFRM			LWRA			LWRB			LFIN			RSHO			RUPA			RELB			RFRM			RWRA			RWRB			RFIN			LASI			RASI			LPSI			RPSI			LTHI			LKNE			LTIB			LANK			LHEE			LTOE			RTHI			RKNE			RTIB			RANK			RHEE			RTOE			*39			*40			*41			*42			*43			*44			
		X1	Y1	Z1	X2	Y2	Z2	X3	Y3	Z3	X4	Y4	Z4	X5	Y5	Z5	X6	Y6	Z6	X7	Y7	Z7	X8	Y8	Z8	X9	Y9	Z9	X10	Y10	Z10	X11	Y11	Z11	X12	Y12	Z12	X13	Y13	Z13	X14	Y14	Z14	X15	Y15	Z15	X16	Y16	Z16	X17	Y17	Z17	X18	Y18	Z18	X19	Y19	Z19	X20	Y20	Z20	X21	Y21	Z21	X22	Y22	Z22	X23	Y23	Z23	X24	Y24	Z24	X25	Y25	Z25	X26	Y26	Z26	X27	Y27	Z27	X28	Y28	Z28	X29	Y29	Z29	X30	Y30	Z30	X31	Y31	Z31	X32	Y32	Z32	X33	Y33	Z33	X34	Y34	Z34	X35	Y35	Z35	X36	Y36	Z36	X37	Y37	Z37	X38	Y38	Z38	X39	Y39	Z39	X40	Y40	Z40	X41	Y41	Z41	X42	Y42	Z42	X43	Y43	Z43	X44	Y44	Z44	X45	Y45	Z45	

358	3.570	1415.58154	719.13483	1607.48083	1548.13306	719.17987	1612.34460	1419.65833	583.95093	1595.32715	1550.39148	588.95728	1598.94141	1485.18372	525.41711	1429.95459	1483.86792	485.46445	1113.19861	1473.32080	640.93304	1346.93604	1463.89075	681.84479	1182.62952	1585.98181	474.30298	1251.67346	1323.49670	581.62146	1387.19019	1247.28979	564.71625	1192.69836	1228.86047	575.56854	1071.09900	1222.01514	623.75018	951.11957	1246.83752	672.01202	841.55359	1201.40369	639.49896	839.69855	1205.98938	675.68604	763.61029	1636.08789	611.07178	1370.60107	1710.43738	649.63794	1153.40601	1721.06921	687.91882	1047.52820	1719.88391	734.23407	918.56958	1678.95544	779.01776	831.72998	1726.97620	756.12372	821.17480	1714.60144	792.87549	757.08380	1355.25806	642.98389	948.94531	1592.51001	656.42542	948.19403	1412.07922	483.08081	967.88495	1560.96106	493.14713	982.05231	1296.98169	646.47308	651.63721	1319.98865	699.20874	480.27484	1327.30566	613.12805	301.12949	1369.70618	554.33563	100.37904	1414.62573	512.76117	70.08986	1366.15369	690.98212	45.64328	1627.82983	582.49872	655.89636	1590.25476	579.56110	476.43448	1585.25818	517.91852	294.68680	1528.91589	484.78275	81.00736	1474.96863	443.56583	53.54926	1513.74585	627.46417	35.82471	1468.45068	653.05560	1685.66589															 
359	3.580	1414.97888	725.42987	1606.97119	1547.48193	725.87860	1612.10083	1419.40723	590.15674	1595.05615	1550.10156	595.67047	1598.98340	1485.33875	531.53607	1429.91968	1483.81604	491.19211	1113.17896	1473.24597	646.93213	1346.73535	1463.96497	687.73102	1182.41797	1586.16907	480.45041	1251.74573	1323.47229	587.31830	1387.07654	1247.26501	568.60406	1192.42688	1228.92542	578.98608	1070.93518	1222.14124	627.47327	951.09302	1247.00879	676.51477	841.89294	1201.82153	643.59192	839.72656	1206.29333	680.15210	763.87781	1636.03271	617.43359	1370.53333	1710.46289	656.82227	1153.62842	1721.19104	695.83624	1048.05554	1719.69824	743.42407	919.62305	1678.31763	788.86554	833.33344	1726.21777	766.05878	822.23840	1713.87988	803.85889	759.03986	1355.48254	649.08154	948.75952	1592.85364	661.87769	947.98444	1412.02722	489.62210	967.54810	1560.80737	498.77753	981.98102	1297.58325	653.61218	651.63007	1321.55359	708.03540	480.87103	1328.15662	627.90625	298.85840	1370.17700	577.10223	95.86902	1415.00891	536.67267	64.24545	1367.57117	715.64868	45.67801	1627.89722	586.66937	655.94098	1590.45435	582.38324	476.58490	1585.16431	519.47137	295.17017	1528.84839	485.05768	81.53957	1474.79199	443.85541	54.40890	1513.88000	627.63330	35.78666	1467.68347	659.65424	1685.28613															 
360	3.590	1414.32800	731.76587	1606.44128	1546.82764	732.49860	1611.86804	1419.08301	596.43787	1594.77991	1549.77405	602.24622	1598.94287	1485.38879	537.71368	1429.80554	1483.62939	497.03680	1113.10095	1473.10632	653.01288	1346.45825	1463.94250	693.62134	1182.13782	1586.36487	486.30960	1251.77380	1323.40869	593.13684	1386.93921	1247.38208	572.83337	1192.22974	1229.11072	582.68207	1070.80774	1222.34290	631.16962	950.97180	1247.27014	680.85815	842.08667	1202.31055	647.52289	839.60162	1206.66724	684.49829	763.97327	1635.92432	623.77692	1370.38708	1710.57458	664.00983	1153.81128	1721.33936	703.53937	1048.48694	1719.32166	752.32391	920.49847	1677.62512	798.58685	834.83868	1725.52112	775.97357	823.35864	1712.80591	814.38586	760.51025	1355.71387	655.20972	948.46265	1593.13599	667.36261	947.72839	1411.81116	495.64401	967.55035	1560.64600	504.42044	981.87805	1298.17871	660.30951	651.45294	1323.27991	716.16443	481.08487	1329.05798	642.82220	296.72144	1370.49854	599.97192	91.79341	1415.00000	560.09705	58.98948	1369.28394	740.36908	45.75981	1627.91016	590.81714	655.98438	1590.61450	585.24249	476.74680	1585.22168	520.96893	295.66055	1528.93250	485.39468	82.14689	1474.67505	444.15353	55.30481	1514.02649	627.82538	35.80840	1467.15588	666.20483	1685.05603															 
361	3.600	1413.71057	738.04993	1605.99060	1546.15527	739.08386	1611.57544	1418.74866	602.67548	1594.34509	1549.42188	608.83911	1598.83911	1485.23254	543.95917	1429.63062	1483.33142	503.07007	1112.94775	1472.99622	659.16949	1346.18384	1463.89795	699.64355	1181.80273	1586.31287	492.43668	1251.68054	1323.23132	599.04156	1386.69531	1247.39954	577.35730	1192.00427	1229.18677	586.36902	1070.42993	1222.65515	634.93549	950.72583	1247.67090	685.08380	842.02441	1202.93652	651.34741	839.31738	1207.06677	688.67139	763.94025	1635.78674	630.07532	1370.17236	1710.55359	671.02112	1153.86157	1721.20166	711.09900	1048.78870	1718.92688	761.01886	921.29218	1676.83105	808.04645	836.27319	1724.74097	785.67133	824.35950	1711.71973	824.80304	762.03137	1355.85669	661.33038	948.04413	1593.35132	672.94440	947.46283	1411.69202	501.44849	967.79596	1560.34827	510.15002	981.85730	1298.81763	666.68488	651.05164	1324.95056	724.16046	481.21909	1329.92859	657.83167	294.69327	1370.69080	622.95099	88.05347	1414.72119	583.58960	54.13034	1371.25854	764.79224	45.83300	1627.95630	594.96155	655.94849	1590.79333	588.10931	476.81134	1585.43140	522.43976	296.18594	1528.95154	485.63745	82.77470	1474.68982	444.35617	56.12168	1514.29309	627.95721	35.87547	1466.33582	672.65326	1684.60376															 
362	3.610	1413.00977	744.26874	1605.41443	1545.46460	745.62354	1611.29443	1418.38428	608.92346	1593.91675	1549.03174	615.34753	1598.58850	1485.12720	550.20044	1429.37061	1483.02698	508.90552	1112.75403	1472.76038	665.34564	1345.82605	1463.76318	705.71582	1181.42041	1586.14233	498.67673	1251.48328	1323.00916	605.09973	1386.43994	1247.62317	582.06946	1191.56384	1229.48010	590.27185	1070.03711	1222.97852	638.77069	950.27856	1248.00244	688.47247	841.57727	1203.52783	655.05530	838.85114	1207.58398	692.67438	763.67072	1635.57910	636.42090	1369.84631	1710.38879	677.78497	1153.74744	1721.23730	718.46985	1048.99207	1718.43860	769.53094	921.96472	1675.94958	817.20276	837.47900	1723.89014	795.13391	825.26831	1710.68567	835.08710	763.67566	1355.94690	667.56555	947.55804	1593.48706	678.55109	947.13525	1411.24255	507.58408	967.36652	1559.97827	515.91455	981.77435	1299.46228	672.75385	650.52197	1326.48804	731.85327	481.22638	1330.81250	672.56885	292.82135	1370.54285	645.57764	84.51009	1414.16602	607.79974	49.84859	1373.41138	789.20074	45.98090	1628.03711	599.13019	655.86993	1590.99011	591.08466	476.87433	1585.62903	524.03119	296.60513	1529.20569	485.95972	83.32568	1474.66663	444.41498	56.95269	1514.23694	627.81769	35.62152	1465.57703	679.08990	1684.10962															 
363	3.620	1412.38379	750.58075	1604.91467	1544.80505	752.16956	1610.92944	1417.94641	615.20380	1593.45459	1548.60974	621.91119	1598.33215	1484.93896	556.54242	1429.03625	1482.61938	515.02753	1112.50452	1472.52588	671.60602	1345.39771	1463.57727	711.84088	1180.96802	1585.93823	504.83521	1251.21399	1322.81555	611.32123	1386.08740	1247.54248	587.02527	1191.28430	1229.76929	594.28583	1069.56323	1223.37073	642.66687	949.69714	1248.43726	692.36407	841.06604	1204.25476	658.74109	838.18945	1208.12537	696.45428	763.17450	1635.33093	642.73212	1369.47742	1710.32617	684.65808	1153.61609	1721.06799	725.86877	1049.16199	1717.84131	777.74170	922.46515	1675.14807	826.44702	838.97205	1722.66895	804.27948	825.94226	1709.29211	844.78705	764.71149	1355.94312	673.80005	946.94666	1593.48901	684.20801	946.76392	1410.89673	513.77667	967.03082	1559.60852	521.72650	981.60815	1300.07397	678.67169	649.79443	1328.33496	739.11450	481.10876	1331.76636	687.01093	291.18564	1370.67615	668.47369	81.79520	1414.13452	630.77905	46.45814	1375.47571	813.26068	45.88486	1628.14063	603.38013	655.80402	1591.28149	594.23108	476.79822	1585.87720	525.79376	297.01068	1529.46411	486.28729	83.82536	1474.92505	444.59235	57.81614	1514.37488	627.91412	35.61040	1465.20862	685.52380	1683.85559															 
364	3.630	1411.68372	756.83362	1604.32446	1544.12732	758.69025	1610.54492	1417.56372	621.46869	1592.93567	1548.14294	628.45227	1597.88965	1484.69177	562.91071	1428.62427	1482.12195	521.09003	1112.17883	1472.24146	677.92114	1344.90588	1463.31055	718.08728	1180.47217	1585.59009	510.99966	1250.85535	1322.47339	617.59839	1385.65308	1247.59448	592.36896	1190.73145	1230.07849	598.75824	1069.01917	1223.84814	646.72021	949.00861	1248.98425	696.19128	840.32483	1204.98022	662.29382	837.34418	1208.81995	700.05469	762.39032	1635.05664	649.05438	1369.02795	1710.11389	691.22675	1153.30627	1720.77063	732.55133	1049.01733	1717.30042	785.79871	922.88342	1674.07312	835.03455	839.83850	1721.75903	813.17102	826.59485	1707.94666	854.28973	765.86481	1355.84839	680.04865	946.26062	1593.43347	689.88812	946.38104	1410.06262	519.22418	966.83789	1559.15540	527.54504	981.50848	1300.76440	684.36237	648.83228	1330.17566	745.94525	480.69360	1332.71667	701.12189	289.69632	1370.77991	690.97253	79.62475	1413.52576	654.54089	43.43229	1377.57043	836.85645	45.93527	1628.27539	607.61627	655.68158	1591.54700	597.46594	476.79190	1586.07410	527.42377	297.23447	1529.73193	486.53363	84.28748	1475.14343	444.71835	58.56122	1514.47559	627.99219	35.53764	1464.51086	691.80444	1683.66931															 
